<svg id="my-svg" width="100%" xmlns="http://www.w3.org/2000/svg" xmlns:xlink="http://www.w3.org/1999/xlink" class="erDiagram" style="max-width: 704.703px; background-color: white;" viewBox="0 0 704.703125 1661.25" role="graphics-document document" aria-roledescription="er"><style>#my-svg{font-family:"trebuchet ms",verdana,arial,sans-serif;font-size:16px;fill:#333;}@keyframes edge-animation-frame{from{stroke-dashoffset:0;}}@keyframes dash{to{stroke-dashoffset:0;}}#my-svg .edge-animation-slow{stroke-dasharray:9,5!important;stroke-dashoffset:900;animation:dash 50s linear infinite;stroke-linecap:round;}#my-svg .edge-animation-fast{stroke-dasharray:9,5!important;stroke-dashoffset:900;animation:dash 20s linear infinite;stroke-linecap:round;}#my-svg .error-icon{fill:#552222;}#my-svg .error-text{fill:#552222;stroke:#552222;}#my-svg .edge-thickness-normal{stroke-width:1px;}#my-svg .edge-thickness-thick{stroke-width:3.5px;}#my-svg .edge-pattern-solid{stroke-dasharray:0;}#my-svg .edge-thickness-invisible{stroke-width:0;fill:none;}#my-svg .edge-pattern-dashed{stroke-dasharray:3;}#my-svg .edge-pattern-dotted{stroke-dasharray:2;}#my-svg .marker{fill:#333333;stroke:#333333;}#my-svg .marker.cross{stroke:#333333;}#my-svg svg{font-family:"trebuchet ms",verdana,arial,sans-serif;font-size:16px;}#my-svg p{margin:0;}#my-svg .entityBox{fill:#ECECFF;stroke:#9370DB;}#my-svg .relationshipLabelBox{fill:hsl(80, 100%, 96.2745098039%);opacity:0.7;background-color:hsl(80, 100%, 96.2745098039%);}#my-svg .relationshipLabelBox rect{opacity:0.5;}#my-svg .labelBkg{background-color:rgba(248.6666666666, 255, 235.9999999999, 0.5);}#my-svg .edgeLabel .label{fill:#9370DB;font-size:14px;}#my-svg .label{font-family:"trebuchet ms",verdana,arial,sans-serif;color:#333;}#my-svg .edge-pattern-dashed{stroke-dasharray:8,8;}#my-svg .node rect,#my-svg .node circle,#my-svg .node ellipse,#my-svg .node polygon{fill:#ECECFF;stroke:#9370DB;stroke-width:1px;}#my-svg .relationshipLine{stroke:#333333;stroke-width:1;fill:none;}#my-svg .marker{fill:none!important;stroke:#333333!important;stroke-width:1;}#my-svg :root{--mermaid-font-family:"trebuchet ms",verdana,arial,sans-serif;}</style><g><defs><marker id="my-svg_er-onlyOneStart" class="marker onlyOne er" refX="0" refY="9" markerWidth="18" markerHeight="18" orient="auto"><path d="M9,0 L9,18 M15,0 L15,18"/></marker></defs><defs><marker id="my-svg_er-onlyOneEnd" class="marker onlyOne er" refX="18" refY="9" markerWidth="18" markerHeight="18" orient="auto"><path d="M3,0 L3,18 M9,0 L9,18"/></marker></defs><defs><marker id="my-svg_er-zeroOrOneStart" class="marker zeroOrOne er" refX="0" refY="9" markerWidth="30" markerHeight="18" orient="auto"><circle fill="white" cx="21" cy="9" r="6"/><path d="M9,0 L9,18"/></marker></defs><defs><marker id="my-svg_er-zeroOrOneEnd" class="marker zeroOrOne er" refX="30" refY="9" markerWidth="30" markerHeight="18" orient="auto"><circle fill="white" cx="9" cy="9" r="6"/><path d="M21,0 L21,18"/></marker></defs><defs><marker id="my-svg_er-oneOrMoreStart" class="marker oneOrMore er" refX="18" refY="18" markerWidth="45" markerHeight="36" orient="auto"><path d="M0,18 Q 18,0 36,18 Q 18,36 0,18 M42,9 L42,27"/></marker></defs><defs><marker id="my-svg_er-oneOrMoreEnd" class="marker oneOrMore er" refX="27" refY="18" markerWidth="45" markerHeight="36" orient="auto"><path d="M3,9 L3,27 M9,18 Q27,0 45,18 Q27,36 9,18"/></marker></defs><defs><marker id="my-svg_er-zeroOrMoreStart" class="marker zeroOrMore er" refX="18" refY="18" markerWidth="57" markerHeight="36" orient="auto"><circle fill="white" cx="48" cy="18" r="6"/><path d="M0,18 Q18,0 36,18 Q18,36 0,18"/></marker></defs><defs><marker id="my-svg_er-zeroOrMoreEnd" class="marker zeroOrMore er" refX="39" refY="18" markerWidth="57" markerHeight="36" orient="auto"><circle fill="white" cx="9" cy="18" r="6"/><path d="M21,18 Q39,0 57,18 Q39,36 21,18"/></marker></defs><g class="root"><g class="clusters"/><g class="edgePaths"><path d="M352.352,643.75L352.352,650.417C352.352,657.083,352.352,670.417,352.352,683.75C352.352,697.083,352.352,710.417,352.352,717.083L352.352,723.75" id="id_entity-collected_fossils-0_entity-user_profile-1_0" class="edge-thickness-normal edge-pattern-solid relationshipLine" style="undefined;;;undefined" data-edge="true" data-et="edge" data-id="id_entity-collected_fossils-0_entity-user_profile-1_0" data-points="W3sieCI6MzUyLjM1MTU2MjUsInkiOjY0My43NX0seyJ4IjozNTIuMzUxNTYyNSwieSI6NjgzLjc1fSx7IngiOjM1Mi4zNTE1NjI1LCJ5Ijo3MjMuNzV9XQ==" marker-start="url(#my-svg_er-zeroOrMoreStart)" marker-end="url(#my-svg_er-onlyOneEnd)"/><path d="M352.352,307.25L352.352,313.917C352.352,320.583,352.352,333.917,352.352,347.25C352.352,360.583,352.352,373.917,352.352,380.583L352.352,387.25" id="id_entity-fossils-2_entity-collected_fossils-0_1" class="edge-thickness-normal edge-pattern-solid relationshipLine" style="undefined;;;undefined" data-edge="true" data-et="edge" data-id="id_entity-fossils-2_entity-collected_fossils-0_1" data-points="W3sieCI6MzUyLjM1MTU2MjUsInkiOjMwNy4yNX0seyJ4IjozNTIuMzUxNTYyNSwieSI6MzQ3LjI1fSx7IngiOjM1Mi4zNTE1NjI1LCJ5IjozODcuMjV9XQ==" marker-start="url(#my-svg_er-onlyOneStart)" marker-end="url(#my-svg_er-zeroOrOneEnd)"/><path d="M352.352,852L352.352,858.667C352.352,865.333,352.352,878.667,352.352,892C352.352,905.333,352.352,918.667,352.352,925.333L352.352,932" id="id_entity-user_profile-1_entity-dig_site_grids-3_2" class="edge-thickness-normal edge-pattern-solid relationshipLine" style="undefined;;;undefined" data-edge="true" data-et="edge" data-id="id_entity-user_profile-1_entity-dig_site_grids-3_2" data-points="W3sieCI6MzUyLjM1MTU2MjUsInkiOjg1Mn0seyJ4IjozNTIuMzUxNTYyNSwieSI6ODkyfSx7IngiOjM1Mi4zNTE1NjI1LCJ5Ijo5MzJ9XQ==" marker-start="url(#my-svg_er-onlyOneStart)" marker-end="url(#my-svg_er-zeroOrMoreEnd)"/><path d="M352.352,1188.5L352.352,1195.167C352.352,1201.833,352.352,1215.167,352.352,1228.5C352.352,1241.833,352.352,1255.167,352.352,1261.833L352.352,1268.5" id="id_entity-dig_site_grids-3_entity-dig_site_squares-4_3" class="edge-thickness-normal edge-pattern-solid relationshipLine" style="undefined;;;undefined" data-edge="true" data-et="edge" data-id="id_entity-dig_site_grids-3_entity-dig_site_squares-4_3" data-points="W3sieCI6MzUyLjM1MTU2MjUsInkiOjExODguNX0seyJ4IjozNTIuMzUxNTYyNSwieSI6MTIyOC41fSx7IngiOjM1Mi4zNTE1NjI1LCJ5IjoxMjY4LjV9XQ==" marker-start="url(#my-svg_er-onlyOneStart)" marker-end="url(#my-svg_er-oneOrMoreEnd)"/></g><g class="edgeLabels"><g class="edgeLabel"><g class="label" data-id="id_entity-collected_fossils-0_entity-user_profile-1_0" transform="translate(0, 0)"><foreignObject width="0" height="0"><div xmlns="http://www.w3.org/1999/xhtml" class="labelBkg" style="display: table-cell; white-space: nowrap; line-height: 1.5; max-width: 200px; text-align: center;"><span class="edgeLabel"></span></div></foreignObject></g></g><g class="edgeLabel"><g class="label" data-id="id_entity-fossils-2_entity-collected_fossils-0_1" transform="translate(0, 0)"><foreignObject width="0" height="0"><div xmlns="http://www.w3.org/1999/xhtml" class="labelBkg" style="display: table-cell; white-space: nowrap; line-height: 1.5; max-width: 200px; text-align: center;"><span class="edgeLabel"></span></div></foreignObject></g></g><g class="edgeLabel"><g class="label" data-id="id_entity-user_profile-1_entity-dig_site_grids-3_2" transform="translate(0, 0)"><foreignObject width="0" height="0"><div xmlns="http://www.w3.org/1999/xhtml" class="labelBkg" style="display: table-cell; white-space: nowrap; line-height: 1.5; max-width: 200px; text-align: center;"><span class="edgeLabel"></span></div></foreignObject></g></g><g class="edgeLabel"><g class="label" data-id="id_entity-dig_site_grids-3_entity-dig_site_squares-4_3" transform="translate(0, 0)"><foreignObject width="0" height="0"><div xmlns="http://www.w3.org/1999/xhtml" class="labelBkg" style="display: table-cell; white-space: nowrap; line-height: 1.5; max-width: 200px; text-align: center;"><span class="edgeLabel"></span></div></foreignObject></g></g></g><g class="nodes"><g class="node default" id="entity-collected_fossils-0" transform="translate(352.3515625, 515.5)"><g style=""><path d="M-193.5390625 -128.25 L193.5390625 -128.25 L193.5390625 128.25 L-193.5390625 128.25" stroke="none" stroke-width="0" fill="#ECECFF"/><path d="M-193.5390625 -128.25 C-111.98227508355527 -128.25, -30.42548766711053 -128.25, 193.5390625 -128.25 M-193.5390625 -128.25 C-63.11640532696174 -128.25, 67.30625184607652 -128.25, 193.5390625 -128.25 M193.5390625 -128.25 C193.5390625 -53.60810934779978, 193.5390625 21.033781304400435, 193.5390625 128.25 M193.5390625 -128.25 C193.5390625 -68.21778490944786, 193.5390625 -8.185569818895729, 193.5390625 128.25 M193.5390625 128.25 C49.33729009113236 128.25, -94.86448231773528 128.25, -193.5390625 128.25 M193.5390625 128.25 C88.73716447708446 128.25, -16.064733545831075 128.25, -193.5390625 128.25 M-193.5390625 128.25 C-193.5390625 35.13053781962057, -193.5390625 -57.98892436075886, -193.5390625 -128.25 M-193.5390625 128.25 C-193.5390625 64.12337604701676, -193.5390625 -0.003247905966475173, -193.5390625 -128.25" stroke="#9370DB" stroke-width="1.3" fill="none" stroke-dasharray="0 0"/></g><g style="" class="row-rect-odd"><path d="M-193.5390625 -85.5 L193.5390625 -85.5 L193.5390625 -42.75 L-193.5390625 -42.75" stroke="none" stroke-width="0" fill="hsl(240, 100%, 100%)"/><path d="M-193.5390625 -85.5 C-53.27933900338334 -85.5, 86.98038449323332 -85.5, 193.5390625 -85.5 M-193.5390625 -85.5 C-84.59434715024105 -85.5, 24.350368199517902 -85.5, 193.5390625 -85.5 M193.5390625 -85.5 C193.5390625 -73.47516748345681, 193.5390625 -61.450334966913616, 193.5390625 -42.75 M193.5390625 -85.5 C193.5390625 -74.77769826071443, 193.5390625 -64.05539652142888, 193.5390625 -42.75 M193.5390625 -42.75 C90.77072821877283 -42.75, -11.997606062454338 -42.75, -193.5390625 -42.75 M193.5390625 -42.75 C68.3763360634098 -42.75, -56.78639037318041 -42.75, -193.5390625 -42.75 M-193.5390625 -42.75 C-193.5390625 -57.34882454312839, -193.5390625 -71.94764908625677, -193.5390625 -85.5 M-193.5390625 -42.75 C-193.5390625 -53.393919926155256, -193.5390625 -64.03783985231051, -193.5390625 -85.5" stroke="#9370DB" stroke-width="1.3" fill="none" stroke-dasharray="0 0"/></g><g style="" class="row-rect-even"><path d="M-193.5390625 -42.75 L193.5390625 -42.75 L193.5390625 0 L-193.5390625 0" stroke="none" stroke-width="0" fill="hsl(240, 100%, 97.2745098039%)"/><path d="M-193.5390625 -42.75 C-91.27643415260009 -42.75, 10.986194194799822 -42.75, 193.5390625 -42.75 M-193.5390625 -42.75 C-87.01843343990626 -42.75, 19.50219562018748 -42.75, 193.5390625 -42.75 M193.5390625 -42.75 C193.5390625 -26.383838582943515, 193.5390625 -10.01767716588703, 193.5390625 0 M193.5390625 -42.75 C193.5390625 -28.884019648122468, 193.5390625 -15.018039296244933, 193.5390625 0 M193.5390625 0 C96.51558617458764 0, -0.5078901508247213 0, -193.5390625 0 M193.5390625 0 C79.39241101144161 0, -34.75424047711678 0, -193.5390625 0 M-193.5390625 0 C-193.5390625 -11.528290906650412, -193.5390625 -23.056581813300824, -193.5390625 -42.75 M-193.5390625 0 C-193.5390625 -15.32444363009506, -193.5390625 -30.64888726019012, -193.5390625 -42.75" stroke="#9370DB" stroke-width="1.3" fill="none" stroke-dasharray="0 0"/></g><g style="" class="row-rect-odd"><path d="M-193.5390625 0 L193.5390625 0 L193.5390625 42.75 L-193.5390625 42.75" stroke="none" stroke-width="0" fill="hsl(240, 100%, 100%)"/><path d="M-193.5390625 0 C-92.67161246020598 0, 8.195837579588044 0, 193.5390625 0 M-193.5390625 0 C-76.59450423936235 0, 40.3500540212753 0, 193.5390625 0 M193.5390625 0 C193.5390625 9.481292553856193, 193.5390625 18.962585107712385, 193.5390625 42.75 M193.5390625 0 C193.5390625 10.322662138206836, 193.5390625 20.64532427641367, 193.5390625 42.75 M193.5390625 42.75 C40.15941771479447 42.75, -113.22022707041106 42.75, -193.5390625 42.75 M193.5390625 42.75 C79.8931464731932 42.75, -33.752769553613604 42.75, -193.5390625 42.75 M-193.5390625 42.75 C-193.5390625 33.21098336972756, -193.5390625 23.671966739455115, -193.5390625 0 M-193.5390625 42.75 C-193.5390625 26.984454314100958, -193.5390625 11.218908628201913, -193.5390625 0" stroke="#9370DB" stroke-width="1.3" fill="none" stroke-dasharray="0 0"/></g><g style="" class="row-rect-even"><path d="M-193.5390625 42.75 L193.5390625 42.75 L193.5390625 85.5 L-193.5390625 85.5" stroke="none" stroke-width="0" fill="hsl(240, 100%, 97.2745098039%)"/><path d="M-193.5390625 42.75 C-41.49467678199474 42.75, 110.54970893601052 42.75, 193.5390625 42.75 M-193.5390625 42.75 C-89.9027748539341 42.75, 13.73351279213179 42.75, 193.5390625 42.75 M193.5390625 42.75 C193.5390625 52.83991524189335, 193.5390625 62.9298304837867, 193.5390625 85.5 M193.5390625 42.75 C193.5390625 55.31971220092487, 193.5390625 67.88942440184974, 193.5390625 85.5 M193.5390625 85.5 C61.652633313514286 85.5, -70.23379587297143 85.5, -193.5390625 85.5 M193.5390625 85.5 C55.92437321693794 85.5, -81.69031606612413 85.5, -193.5390625 85.5 M-193.5390625 85.5 C-193.5390625 76.00036347314601, -193.5390625 66.50072694629202, -193.5390625 42.75 M-193.5390625 85.5 C-193.5390625 69.09098882270581, -193.5390625 52.68197764541162, -193.5390625 42.75" stroke="#9370DB" stroke-width="1.3" fill="none" stroke-dasharray="0 0"/></g><g style="" class="row-rect-odd"><path d="M-193.5390625 85.5 L193.5390625 85.5 L193.5390625 128.25 L-193.5390625 128.25" stroke="none" stroke-width="0" fill="hsl(240, 100%, 100%)"/><path d="M-193.5390625 85.5 C-85.83964361386734 85.5, 21.859775272265324 85.5, 193.5390625 85.5 M-193.5390625 85.5 C-108.83875422890353 85.5, -24.13844595780705 85.5, 193.5390625 85.5 M193.5390625 85.5 C193.5390625 101.25587282568459, 193.5390625 117.0117456513692, 193.5390625 128.25 M193.5390625 85.5 C193.5390625 97.39661759339245, 193.5390625 109.29323518678491, 193.5390625 128.25 M193.5390625 128.25 C102.98725905410978 128.25, 12.43545560821957 128.25, -193.5390625 128.25 M193.5390625 128.25 C63.35596566473055 128.25, -66.8271311705389 128.25, -193.5390625 128.25 M-193.5390625 128.25 C-193.5390625 111.97910369399484, -193.5390625 95.70820738798969, -193.5390625 85.5 M-193.5390625 128.25 C-193.5390625 116.52276913584149, -193.5390625 104.79553827168297, -193.5390625 85.5" stroke="#9370DB" stroke-width="1.3" fill="none" stroke-dasharray="0 0"/></g><g class="label name" transform="translate(-64.859375, -118.875)" style=""><foreignObject width="129.71875" height="24"><div xmlns="http://www.w3.org/1999/xhtml" style="display: table-cell; white-space: nowrap; line-height: 1.5; max-width: 230px; text-align: start;"><span class="nodeLabel"><p>collected_fossils</p></span></div></foreignObject></g><g class="label attribute-type" transform="translate(-181.0390625, -76.125)" style=""><foreignObject width="38.71875" height="24"><div xmlns="http://www.w3.org/1999/xhtml" style="display: table-cell; white-space: nowrap; line-height: 1.5; max-width: 139px; text-align: start;"><span class="nodeLabel"><p>Long</p></span></div></foreignObject></g><g class="label attribute-name" transform="translate(-91.2421875, -76.125)" style=""><foreignObject width="143.984375" height="24"><div xmlns="http://www.w3.org/1999/xhtml" style="display: table-cell; white-space: nowrap; line-height: 1.5; max-width: 244px; text-align: start;"><span class="nodeLabel"><p>collected_fossil_id</p></span></div></foreignObject></g><g class="label attribute-keys" transform="translate(94.3828125, -76.125)" style=""><foreignObject width="20.140625" height="24"><div xmlns="http://www.w3.org/1999/xhtml" style="display: table-cell; white-space: nowrap; line-height: 1.5; max-width: 121px; text-align: start;"><span class="nodeLabel"><p>PK</p></span></div></foreignObject></g><g class="label attribute-comment" transform="translate(139.5234375, -76.125)" style=""><foreignObject width="0" height="0"><div xmlns="http://www.w3.org/1999/xhtml" style="display: table-cell; white-space: nowrap; line-height: 1.5; max-width: 100px; text-align: start;"><span class="nodeLabel"></span></div></foreignObject></g><g class="label attribute-type" transform="translate(-181.0390625, -33.375)" style=""><foreignObject width="38.71875" height="24"><div xmlns="http://www.w3.org/1999/xhtml" style="display: table-cell; white-space: nowrap; line-height: 1.5; max-width: 139px; text-align: start;"><span class="nodeLabel"><p>Long</p></span></div></foreignObject></g><g class="label attribute-name" transform="translate(-91.2421875, -33.375)" style=""><foreignObject width="124.015625" height="24"><div xmlns="http://www.w3.org/1999/xhtml" style="display: table-cell; white-space: nowrap; line-height: 1.5; max-width: 224px; text-align: start;"><span class="nodeLabel"><p>fossil_stats_key</p></span></div></foreignObject></g><g class="label attribute-keys" transform="translate(94.3828125, -33.375)" style=""><foreignObject width="19.703125" height="24"><div xmlns="http://www.w3.org/1999/xhtml" style="display: table-cell; white-space: nowrap; line-height: 1.5; max-width: 120px; text-align: start;"><span class="nodeLabel"><p>FK</p></span></div></foreignObject></g><g class="label attribute-comment" transform="translate(139.5234375, -33.375)" style=""><foreignObject width="41.515625" height="24"><div xmlns="http://www.w3.org/1999/xhtml" style="display: table-cell; white-space: nowrap; line-height: 1.5; max-width: 142px; text-align: start;"><span class="nodeLabel"><p>NULL</p></span></div></foreignObject></g><g class="label attribute-type" transform="translate(-181.0390625, 9.375)" style=""><foreignObject width="38.71875" height="24"><div xmlns="http://www.w3.org/1999/xhtml" style="display: table-cell; white-space: nowrap; line-height: 1.5; max-width: 139px; text-align: start;"><span class="nodeLabel"><p>Long</p></span></div></foreignObject></g><g class="label attribute-name" transform="translate(-91.2421875, 9.375)" style=""><foreignObject width="120.03125" height="24"><div xmlns="http://www.w3.org/1999/xhtml" style="display: table-cell; white-space: nowrap; line-height: 1.5; max-width: 220px; text-align: start;"><span class="nodeLabel"><p>collecting_user</p></span></div></foreignObject></g><g class="label attribute-keys" transform="translate(94.3828125, 9.375)" style=""><foreignObject width="19.703125" height="24"><div xmlns="http://www.w3.org/1999/xhtml" style="display: table-cell; white-space: nowrap; line-height: 1.5; max-width: 120px; text-align: start;"><span class="nodeLabel"><p>FK</p></span></div></foreignObject></g><g class="label attribute-comment" transform="translate(139.5234375, 9.375)" style=""><foreignObject width="0" height="0"><div xmlns="http://www.w3.org/1999/xhtml" style="display: table-cell; white-space: nowrap; line-height: 1.5; max-width: 100px; text-align: start;"><span class="nodeLabel"></span></div></foreignObject></g><g class="label attribute-type" transform="translate(-181.0390625, 52.125)" style=""><foreignObject width="64.796875" height="24"><div xmlns="http://www.w3.org/1999/xhtml" style="display: table-cell; white-space: nowrap; line-height: 1.5; max-width: 165px; text-align: start;"><span class="nodeLabel"><p>Boolean</p></span></div></foreignObject></g><g class="label attribute-name" transform="translate(-91.2421875, 52.125)" style=""><foreignObject width="82.625" height="24"><div xmlns="http://www.w3.org/1999/xhtml" style="display: table-cell; white-space: nowrap; line-height: 1.5; max-width: 183px; text-align: start;"><span class="nodeLabel"><p>is_favorite</p></span></div></foreignObject></g><g class="label attribute-keys" transform="translate(94.3828125, 52.125)" style=""><foreignObject width="0" height="0"><div xmlns="http://www.w3.org/1999/xhtml" style="display: table-cell; white-space: nowrap; line-height: 1.5; max-width: 100px; text-align: start;"><span class="nodeLabel"></span></div></foreignObject></g><g class="label attribute-comment" transform="translate(139.5234375, 52.125)" style=""><foreignObject width="0" height="0"><div xmlns="http://www.w3.org/1999/xhtml" style="display: table-cell; white-space: nowrap; line-height: 1.5; max-width: 100px; text-align: start;"><span class="nodeLabel"></span></div></foreignObject></g><g class="label attribute-type" transform="translate(-181.0390625, 94.875)" style=""><foreignObject width="55.6875" height="24"><div xmlns="http://www.w3.org/1999/xhtml" style="display: table-cell; white-space: nowrap; line-height: 1.5; max-width: 155px; text-align: start;"><span class="nodeLabel"><p>Instant</p></span></div></foreignObject></g><g class="label attribute-name" transform="translate(-91.2421875, 94.875)" style=""><foreignObject width="160.625" height="24"><div xmlns="http://www.w3.org/1999/xhtml" style="display: table-cell; white-space: nowrap; line-height: 1.5; max-width: 261px; text-align: start;"><span class="nodeLabel"><p>date_time_collected</p></span></div></foreignObject></g><g class="label attribute-keys" transform="translate(94.3828125, 94.875)" style=""><foreignObject width="0" height="0"><div xmlns="http://www.w3.org/1999/xhtml" style="display: table-cell; white-space: nowrap; line-height: 1.5; max-width: 100px; text-align: start;"><span class="nodeLabel"></span></div></foreignObject></g><g class="label attribute-comment" transform="translate(139.5234375, 94.875)" style=""><foreignObject width="0" height="0"><div xmlns="http://www.w3.org/1999/xhtml" style="display: table-cell; white-space: nowrap; line-height: 1.5; max-width: 100px; text-align: start;"><span class="nodeLabel"></span></div></foreignObject></g><g class="divider"><path d="M-193.5390625 -85.5 C-81.2102167244523 -85.5, 31.11862905109541 -85.5, 193.5390625 -85.5 M-193.5390625 -85.5 C-51.20105741237842 -85.5, 91.13694767524316 -85.5, 193.5390625 -85.5" stroke="#9370DB" stroke-width="1.3" fill="none" stroke-dasharray="0 0"/></g><g class="divider"><path d="M-103.7421875 -85.5 C-103.7421875 -16.246559400794183, -103.7421875 53.006881198411634, -103.7421875 128.25 M-103.7421875 -85.5 C-103.7421875 -24.48980068292871, -103.7421875 36.52039863414258, -103.7421875 128.25" stroke="#9370DB" stroke-width="1.3" fill="none" stroke-dasharray="0 0"/></g><g class="divider"><path d="M81.8828125 -85.5 C81.8828125 -42.49427267824776, 81.8828125 0.5114546435044787, 81.8828125 128.25 M81.8828125 -85.5 C81.8828125 -33.65328289807958, 81.8828125 18.193434203840837, 81.8828125 128.25" stroke="#9370DB" stroke-width="1.3" fill="none" stroke-dasharray="0 0"/></g><g class="divider"><path d="M127.0234375 -85.5 C127.0234375 -9.402652485773814, 127.0234375 66.69469502845237, 127.0234375 128.25 M127.0234375 -85.5 C127.0234375 -18.826620501494332, 127.0234375 47.846758997011335, 127.0234375 128.25" stroke="#9370DB" stroke-width="1.3" fill="none" stroke-dasharray="0 0"/></g><g class="divider"><path d="M-193.5390625 -85.5 C-108.70535633079221 -85.5, -23.871650161584427 -85.5, 193.5390625 -85.5 M-193.5390625 -85.5 C-67.85133912568757 -85.5, 57.83638424862485 -85.5, 193.5390625 -85.5" stroke="#9370DB" stroke-width="1.3" fill="none" stroke-dasharray="0 0"/></g></g><g class="node default" id="entity-user_profile-1" transform="translate(352.3515625, 787.875)"><g style=""><path d="M-134.4140625 -64.125 L134.4140625 -64.125 L134.4140625 64.125 L-134.4140625 64.125" stroke="none" stroke-width="0" fill="#ECECFF"/><path d="M-134.4140625 -64.125 C-57.662676335978276 -64.125, 19.08870982804345 -64.125, 134.4140625 -64.125 M-134.4140625 -64.125 C-59.77263011736318 -64.125, 14.868802265273644 -64.125, 134.4140625 -64.125 M134.4140625 -64.125 C134.4140625 -31.98038003713443, 134.4140625 0.16423992573113821, 134.4140625 64.125 M134.4140625 -64.125 C134.4140625 -31.868471625087395, 134.4140625 0.38805674982521055, 134.4140625 64.125 M134.4140625 64.125 C54.8574641940795 64.125, -24.699134111841005 64.125, -134.4140625 64.125 M134.4140625 64.125 C56.64325506824865 64.125, -21.1275523635027 64.125, -134.4140625 64.125 M-134.4140625 64.125 C-134.4140625 15.461136458092703, -134.4140625 -33.202727083814594, -134.4140625 -64.125 M-134.4140625 64.125 C-134.4140625 26.140807262288945, -134.4140625 -11.84338547542211, -134.4140625 -64.125" stroke="#9370DB" stroke-width="1.3" fill="none" stroke-dasharray="0 0"/></g><g style="" class="row-rect-odd"><path d="M-134.4140625 -21.375 L134.4140625 -21.375 L134.4140625 21.375 L-134.4140625 21.375" stroke="none" stroke-width="0" fill="hsl(240, 100%, 100%)"/><path d="M-134.4140625 -21.375 C-44.00777259461147 -21.375, 46.398517310777066 -21.375, 134.4140625 -21.375 M-134.4140625 -21.375 C-80.55730648496964 -21.375, -26.700550469939273 -21.375, 134.4140625 -21.375 M134.4140625 -21.375 C134.4140625 -8.749129516365242, 134.4140625 3.876740967269516, 134.4140625 21.375 M134.4140625 -21.375 C134.4140625 -4.7231359493661955, 134.4140625 11.928728101267609, 134.4140625 21.375 M134.4140625 21.375 C59.24495850346902 21.375, -15.924145493061957 21.375, -134.4140625 21.375 M134.4140625 21.375 C39.301429301749835 21.375, -55.81120389650033 21.375, -134.4140625 21.375 M-134.4140625 21.375 C-134.4140625 9.388854396986655, -134.4140625 -2.5972912060266893, -134.4140625 -21.375 M-134.4140625 21.375 C-134.4140625 9.265512293095409, -134.4140625 -2.843975413809183, -134.4140625 -21.375" stroke="#9370DB" stroke-width="1.3" fill="none" stroke-dasharray="0 0"/></g><g style="" class="row-rect-even"><path d="M-134.4140625 21.375 L134.4140625 21.375 L134.4140625 64.125 L-134.4140625 64.125" stroke="none" stroke-width="0" fill="hsl(240, 100%, 97.2745098039%)"/><path d="M-134.4140625 21.375 C-77.78428569015725 21.375, -21.15450888031451 21.375, 134.4140625 21.375 M-134.4140625 21.375 C-46.816373119554484 21.375, 40.78131626089103 21.375, 134.4140625 21.375 M134.4140625 21.375 C134.4140625 32.500084290722384, 134.4140625 43.62516858144477, 134.4140625 64.125 M134.4140625 21.375 C134.4140625 32.747880249194424, 134.4140625 44.12076049838885, 134.4140625 64.125 M134.4140625 64.125 C79.17169896439759 64.125, 23.9293354287952 64.125, -134.4140625 64.125 M134.4140625 64.125 C46.41162827201717 64.125, -41.59080595596566 64.125, -134.4140625 64.125 M-134.4140625 64.125 C-134.4140625 52.278810203673665, -134.4140625 40.43262040734733, -134.4140625 21.375 M-134.4140625 64.125 C-134.4140625 54.45709599097874, -134.4140625 44.78919198195749, -134.4140625 21.375" stroke="#9370DB" stroke-width="1.3" fill="none" stroke-dasharray="0 0"/></g><g class="label name" transform="translate(-46.71875, -54.75)" style=""><foreignObject width="93.4375" height="24"><div xmlns="http://www.w3.org/1999/xhtml" style="display: table-cell; white-space: nowrap; line-height: 1.5; max-width: 194px; text-align: start;"><span class="nodeLabel"><p>user_profile</p></span></div></foreignObject></g><g class="label attribute-type" transform="translate(-121.9140625, -12)" style=""><foreignObject width="38.71875" height="24"><div xmlns="http://www.w3.org/1999/xhtml" style="display: table-cell; white-space: nowrap; line-height: 1.5; max-width: 139px; text-align: start;"><span class="nodeLabel"><p>Long</p></span></div></foreignObject></g><g class="label attribute-name" transform="translate(-39.3515625, -12)" style=""><foreignObject width="57.5" height="24"><div xmlns="http://www.w3.org/1999/xhtml" style="display: table-cell; white-space: nowrap; line-height: 1.5; max-width: 158px; text-align: start;"><span class="nodeLabel"><p>user_id</p></span></div></foreignObject></g><g class="label attribute-keys" transform="translate(101.7734375, -12)" style=""><foreignObject width="20.140625" height="24"><div xmlns="http://www.w3.org/1999/xhtml" style="display: table-cell; white-space: nowrap; line-height: 1.5; max-width: 121px; text-align: start;"><span class="nodeLabel"><p>PK</p></span></div></foreignObject></g><g class="label attribute-comment" transform="translate(146.9140625, -12)" style=""><foreignObject width="0" height="0"><div xmlns="http://www.w3.org/1999/xhtml" style="display: table-cell; white-space: nowrap; line-height: 1.5; max-width: 100px; text-align: start;"><span class="nodeLabel"></span></div></foreignObject></g><g class="label attribute-type" transform="translate(-121.9140625, 30.75)" style=""><foreignObject width="57.5625" height="24"><div xmlns="http://www.w3.org/1999/xhtml" style="display: table-cell; white-space: nowrap; line-height: 1.5; max-width: 158px; text-align: start;"><span class="nodeLabel"><p>Integer</p></span></div></foreignObject></g><g class="label attribute-name" transform="translate(-39.3515625, 30.75)" style=""><foreignObject width="116.125" height="24"><div xmlns="http://www.w3.org/1999/xhtml" style="display: table-cell; white-space: nowrap; line-height: 1.5; max-width: 216px; text-align: start;"><span class="nodeLabel"><p>scanner_items</p></span></div></foreignObject></g><g class="label attribute-keys" transform="translate(101.7734375, 30.75)" style=""><foreignObject width="0" height="0"><div xmlns="http://www.w3.org/1999/xhtml" style="display: table-cell; white-space: nowrap; line-height: 1.5; max-width: 100px; text-align: start;"><span class="nodeLabel"></span></div></foreignObject></g><g class="label attribute-comment" transform="translate(146.9140625, 30.75)" style=""><foreignObject width="0" height="0"><div xmlns="http://www.w3.org/1999/xhtml" style="display: table-cell; white-space: nowrap; line-height: 1.5; max-width: 100px; text-align: start;"><span class="nodeLabel"></span></div></foreignObject></g><g class="divider"><path d="M-134.4140625 -21.375 C-28.664905464421835 -21.375, 77.08425157115633 -21.375, 134.4140625 -21.375 M-134.4140625 -21.375 C-44.6081033501968 -21.375, 45.1978557996064 -21.375, 134.4140625 -21.375" stroke="#9370DB" stroke-width="1.3" fill="none" stroke-dasharray="0 0"/></g><g class="divider"><path d="M-51.8515625 -21.375 C-51.8515625 -0.8904147659425803, -51.8515625 19.59417046811484, -51.8515625 64.125 M-51.8515625 -21.375 C-51.8515625 0.7030755658398924, -51.8515625 22.781151131679785, -51.8515625 64.125" stroke="#9370DB" stroke-width="1.3" fill="none" stroke-dasharray="0 0"/></g><g class="divider"><path d="M89.2734375 -21.375 C89.2734375 11.785602268632118, 89.2734375 44.94620453726424, 89.2734375 64.125 M89.2734375 -21.375 C89.2734375 -3.488518059649234, 89.2734375 14.397963880701532, 89.2734375 64.125" stroke="#9370DB" stroke-width="1.3" fill="none" stroke-dasharray="0 0"/></g><g class="divider"><path d="M-134.4140625 -21.375 C-75.94654326775733 -21.375, -17.479024035514655 -21.375, 134.4140625 -21.375 M-134.4140625 -21.375 C-34.83765336313253 -21.375, 64.73875577373494 -21.375, 134.4140625 -21.375" stroke="#9370DB" stroke-width="1.3" fill="none" stroke-dasharray="0 0"/></g></g><g class="node default" id="entity-fossils-2" transform="translate(352.3515625, 157.625)"><g style=""><path d="M-296.765625 -149.625 L296.765625 -149.625 L296.765625 149.625 L-296.765625 149.625" stroke="none" stroke-width="0" fill="#ECECFF"/><path d="M-296.765625 -149.625 C-87.89370632562353 -149.625, 120.97821234875295 -149.625, 296.765625 -149.625 M-296.765625 -149.625 C-108.37120567881203 -149.625, 80.02321364237594 -149.625, 296.765625 -149.625 M296.765625 -149.625 C296.765625 -88.56672499587529, 296.765625 -27.508449991750595, 296.765625 149.625 M296.765625 -149.625 C296.765625 -87.32549682560527, 296.765625 -25.02599365121054, 296.765625 149.625 M296.765625 149.625 C71.61502291336572 149.625, -153.53557917326856 149.625, -296.765625 149.625 M296.765625 149.625 C113.0995701523075 149.625, -70.56648469538499 149.625, -296.765625 149.625 M-296.765625 149.625 C-296.765625 30.089994909694454, -296.765625 -89.44501018061109, -296.765625 -149.625 M-296.765625 149.625 C-296.765625 65.44829084702222, -296.765625 -18.728418305955557, -296.765625 -149.625" stroke="#9370DB" stroke-width="1.3" fill="none" stroke-dasharray="0 0"/></g><g style="" class="row-rect-odd"><path d="M-296.765625 -106.875 L296.765625 -106.875 L296.765625 -64.125 L-296.765625 -64.125" stroke="none" stroke-width="0" fill="hsl(240, 100%, 100%)"/><path d="M-296.765625 -106.875 C-104.4697309824283 -106.875, 87.8261630351434 -106.875, 296.765625 -106.875 M-296.765625 -106.875 C-136.20086629230138 -106.875, 24.36389241539723 -106.875, 296.765625 -106.875 M296.765625 -106.875 C296.765625 -93.49386008391438, 296.765625 -80.11272016782877, 296.765625 -64.125 M296.765625 -106.875 C296.765625 -90.99864647542321, 296.765625 -75.12229295084641, 296.765625 -64.125 M296.765625 -64.125 C95.15516571121844 -64.125, -106.45529357756311 -64.125, -296.765625 -64.125 M296.765625 -64.125 C115.972342211012 -64.125, -64.82094057797599 -64.125, -296.765625 -64.125 M-296.765625 -64.125 C-296.765625 -78.42394108576454, -296.765625 -92.72288217152908, -296.765625 -106.875 M-296.765625 -64.125 C-296.765625 -76.82971507330137, -296.765625 -89.53443014660273, -296.765625 -106.875" stroke="#9370DB" stroke-width="1.3" fill="none" stroke-dasharray="0 0"/></g><g style="" class="row-rect-even"><path d="M-296.765625 -64.125 L296.765625 -64.125 L296.765625 -21.375 L-296.765625 -21.375" stroke="none" stroke-width="0" fill="hsl(240, 100%, 97.2745098039%)"/><path d="M-296.765625 -64.125 C-69.78675829083659 -64.125, 157.19210841832682 -64.125, 296.765625 -64.125 M-296.765625 -64.125 C-147.07316653804742 -64.125, 2.619291923905166 -64.125, 296.765625 -64.125 M296.765625 -64.125 C296.765625 -50.26339376235916, 296.765625 -36.40178752471831, 296.765625 -21.375 M296.765625 -64.125 C296.765625 -54.45440143234009, 296.765625 -44.78380286468018, 296.765625 -21.375 M296.765625 -21.375 C111.67586954793273 -21.375, -73.41388590413453 -21.375, -296.765625 -21.375 M296.765625 -21.375 C83.03921157920834 -21.375, -130.68720184158332 -21.375, -296.765625 -21.375 M-296.765625 -21.375 C-296.765625 -34.49041294012516, -296.765625 -47.60582588025032, -296.765625 -64.125 M-296.765625 -21.375 C-296.765625 -36.19243881423705, -296.765625 -51.0098776284741, -296.765625 -64.125" stroke="#9370DB" stroke-width="1.3" fill="none" stroke-dasharray="0 0"/></g><g style="" class="row-rect-odd"><path d="M-296.765625 -21.375 L296.765625 -21.375 L296.765625 21.375 L-296.765625 21.375" stroke="none" stroke-width="0" fill="hsl(240, 100%, 100%)"/><path d="M-296.765625 -21.375 C-147.93644529936753 -21.375, 0.8927344012649314 -21.375, 296.765625 -21.375 M-296.765625 -21.375 C-129.50552941307825 -21.375, 37.7545661738435 -21.375, 296.765625 -21.375 M296.765625 -21.375 C296.765625 -7.706885504311902, 296.765625 5.9612289913761956, 296.765625 21.375 M296.765625 -21.375 C296.765625 -10.890099594121255, 296.765625 -0.4051991882425092, 296.765625 21.375 M296.765625 21.375 C151.71319733140814 21.375, 6.6607696628162785 21.375, -296.765625 21.375 M296.765625 21.375 C126.74947352700778 21.375, -43.26667794598444 21.375, -296.765625 21.375 M-296.765625 21.375 C-296.765625 6.3238685382860425, -296.765625 -8.727262923427915, -296.765625 -21.375 M-296.765625 21.375 C-296.765625 8.148808324707058, -296.765625 -5.077383350585883, -296.765625 -21.375" stroke="#9370DB" stroke-width="1.3" fill="none" stroke-dasharray="0 0"/></g><g style="" class="row-rect-even"><path d="M-296.765625 21.375 L296.765625 21.375 L296.765625 64.125 L-296.765625 64.125" stroke="none" stroke-width="0" fill="hsl(240, 100%, 97.2745098039%)"/><path d="M-296.765625 21.375 C-67.56134594646218 21.375, 161.64293310707563 21.375, 296.765625 21.375 M-296.765625 21.375 C-63.678861904410184 21.375, 169.40790119117963 21.375, 296.765625 21.375 M296.765625 21.375 C296.765625 31.930966393391827, 296.765625 42.486932786783655, 296.765625 64.125 M296.765625 21.375 C296.765625 37.85143435398115, 296.765625 54.327868707962296, 296.765625 64.125 M296.765625 64.125 C154.12004031554608 64.125, 11.474455631092155 64.125, -296.765625 64.125 M296.765625 64.125 C115.40921484726567 64.125, -65.94719530546865 64.125, -296.765625 64.125 M-296.765625 64.125 C-296.765625 52.75606483240019, -296.765625 41.38712966480038, -296.765625 21.375 M-296.765625 64.125 C-296.765625 54.41872801856438, -296.765625 44.71245603712875, -296.765625 21.375" stroke="#9370DB" stroke-width="1.3" fill="none" stroke-dasharray="0 0"/></g><g style="" class="row-rect-odd"><path d="M-296.765625 64.125 L296.765625 64.125 L296.765625 106.875 L-296.765625 106.875" stroke="none" stroke-width="0" fill="hsl(240, 100%, 100%)"/><path d="M-296.765625 64.125 C-140.27342369389612 64.125, 16.21877761220776 64.125, 296.765625 64.125 M-296.765625 64.125 C-140.37030568651576 64.125, 16.025013626968473 64.125, 296.765625 64.125 M296.765625 64.125 C296.765625 74.82659095616327, 296.765625 85.52818191232653, 296.765625 106.875 M296.765625 64.125 C296.765625 79.83841485851562, 296.765625 95.55182971703124, 296.765625 106.875 M296.765625 106.875 C133.2156981823573 106.875, -30.3342286352854 106.875, -296.765625 106.875 M296.765625 106.875 C165.40630027105192 106.875, 34.04697554210384 106.875, -296.765625 106.875 M-296.765625 106.875 C-296.765625 92.19088828596028, -296.765625 77.50677657192058, -296.765625 64.125 M-296.765625 106.875 C-296.765625 98.02457794972916, -296.765625 89.17415589945833, -296.765625 64.125" stroke="#9370DB" stroke-width="1.3" fill="none" stroke-dasharray="0 0"/></g><g style="" class="row-rect-even"><path d="M-296.765625 106.875 L296.765625 106.875 L296.765625 149.625 L-296.765625 149.625" stroke="none" stroke-width="0" fill="hsl(240, 100%, 97.2745098039%)"/><path d="M-296.765625 106.875 C-163.9084861788762 106.875, -31.051347357752377 106.875, 296.765625 106.875 M-296.765625 106.875 C-103.88365160709125 106.875, 88.9983217858175 106.875, 296.765625 106.875 M296.765625 106.875 C296.765625 122.96131099473669, 296.765625 139.04762198947338, 296.765625 149.625 M296.765625 106.875 C296.765625 120.20060002797437, 296.765625 133.52620005594875, 296.765625 149.625 M296.765625 149.625 C128.67355542126302 149.625, -39.418514157473965 149.625, -296.765625 149.625 M296.765625 149.625 C84.41139625385105 149.625, -127.9428324922979 149.625, -296.765625 149.625 M-296.765625 149.625 C-296.765625 141.0690513380443, -296.765625 132.5131026760886, -296.765625 106.875 M-296.765625 149.625 C-296.765625 132.87142517841065, -296.765625 116.1178503568213, -296.765625 106.875" stroke="#9370DB" stroke-width="1.3" fill="none" stroke-dasharray="0 0"/></g><g class="label name" transform="translate(-24.6640625, -140.25)" style=""><foreignObject width="49.328125" height="24"><div xmlns="http://www.w3.org/1999/xhtml" style="display: table-cell; white-space: nowrap; line-height: 1.5; max-width: 148px; text-align: start;"><span class="nodeLabel"><p>fossils</p></span></div></foreignObject></g><g class="label attribute-type" transform="translate(-284.265625, -97.5)" style=""><foreignObject width="38.71875" height="24"><div xmlns="http://www.w3.org/1999/xhtml" style="display: table-cell; white-space: nowrap; line-height: 1.5; max-width: 139px; text-align: start;"><span class="nodeLabel"><p>Long</p></span></div></foreignObject></g><g class="label attribute-name" transform="translate(-211.515625, -97.5)" style=""><foreignObject width="63.59375" height="24"><div xmlns="http://www.w3.org/1999/xhtml" style="display: table-cell; white-space: nowrap; line-height: 1.5; max-width: 164px; text-align: start;"><span class="nodeLabel"><p>fossil_id</p></span></div></foreignObject></g><g class="label attribute-keys" transform="translate(-70.609375, -97.5)" style=""><foreignObject width="20.140625" height="24"><div xmlns="http://www.w3.org/1999/xhtml" style="display: table-cell; white-space: nowrap; line-height: 1.5; max-width: 121px; text-align: start;"><span class="nodeLabel"><p>PK</p></span></div></foreignObject></g><g class="label attribute-comment" transform="translate(-23.40625, -97.5)" style=""><foreignObject width="0" height="0"><div xmlns="http://www.w3.org/1999/xhtml" style="display: table-cell; white-space: nowrap; line-height: 1.5; max-width: 100px; text-align: start;"><span class="nodeLabel"></span></div></foreignObject></g><g class="label attribute-type" transform="translate(-284.265625, -54.75)" style=""><foreignObject width="27.546875" height="24"><div xmlns="http://www.w3.org/1999/xhtml" style="display: table-cell; white-space: nowrap; line-height: 1.5; max-width: 128px; text-align: start;"><span class="nodeLabel"><p>URI</p></span></div></foreignObject></g><g class="label attribute-name" transform="translate(-211.515625, -54.75)" style=""><foreignObject width="79" height="24"><div xmlns="http://www.w3.org/1999/xhtml" style="display: table-cell; white-space: nowrap; line-height: 1.5; max-width: 179px; text-align: start;"><span class="nodeLabel"><p>image_uri</p></span></div></foreignObject></g><g class="label attribute-keys" transform="translate(-70.609375, -54.75)" style=""><foreignObject width="0" height="0"><div xmlns="http://www.w3.org/1999/xhtml" style="display: table-cell; white-space: nowrap; line-height: 1.5; max-width: 100px; text-align: start;"><span class="nodeLabel"></span></div></foreignObject></g><g class="label attribute-comment" transform="translate(-23.40625, -54.75)" style=""><foreignObject width="0" height="0"><div xmlns="http://www.w3.org/1999/xhtml" style="display: table-cell; white-space: nowrap; line-height: 1.5; max-width: 100px; text-align: start;"><span class="nodeLabel"></span></div></foreignObject></g><g class="label attribute-type" transform="translate(-284.265625, -12)" style=""><foreignObject width="47.75" height="24"><div xmlns="http://www.w3.org/1999/xhtml" style="display: table-cell; white-space: nowrap; line-height: 1.5; max-width: 147px; text-align: start;"><span class="nodeLabel"><p>String</p></span></div></foreignObject></g><g class="label attribute-name" transform="translate(-211.515625, -12)" style=""><foreignObject width="88.484375" height="24"><div xmlns="http://www.w3.org/1999/xhtml" style="display: table-cell; white-space: nowrap; line-height: 1.5; max-width: 188px; text-align: start;"><span class="nodeLabel"><p>latin_name</p></span></div></foreignObject></g><g class="label attribute-keys" transform="translate(-70.609375, -12)" style=""><foreignObject width="0" height="0"><div xmlns="http://www.w3.org/1999/xhtml" style="display: table-cell; white-space: nowrap; line-height: 1.5; max-width: 100px; text-align: start;"><span class="nodeLabel"></span></div></foreignObject></g><g class="label attribute-comment" transform="translate(-23.40625, -12)" style=""><foreignObject width="41.515625" height="24"><div xmlns="http://www.w3.org/1999/xhtml" style="display: table-cell; white-space: nowrap; line-height: 1.5; max-width: 142px; text-align: start;"><span class="nodeLabel"><p>NULL</p></span></div></foreignObject></g><g class="label attribute-type" transform="translate(-284.265625, 30.75)" style=""><foreignObject width="47.75" height="24"><div xmlns="http://www.w3.org/1999/xhtml" style="display: table-cell; white-space: nowrap; line-height: 1.5; max-width: 147px; text-align: start;"><span class="nodeLabel"><p>String</p></span></div></foreignObject></g><g class="label attribute-name" transform="translate(-211.515625, 30.75)" style=""><foreignObject width="115.90625" height="24"><div xmlns="http://www.w3.org/1999/xhtml" style="display: table-cell; white-space: nowrap; line-height: 1.5; max-width: 216px; text-align: start;"><span class="nodeLabel"><p>geological_era</p></span></div></foreignObject></g><g class="label attribute-keys" transform="translate(-70.609375, 30.75)" style=""><foreignObject width="0" height="0"><div xmlns="http://www.w3.org/1999/xhtml" style="display: table-cell; white-space: nowrap; line-height: 1.5; max-width: 100px; text-align: start;"><span class="nodeLabel"></span></div></foreignObject></g><g class="label attribute-comment" transform="translate(-23.40625, 30.75)" style=""><foreignObject width="41.515625" height="24"><div xmlns="http://www.w3.org/1999/xhtml" style="display: table-cell; white-space: nowrap; line-height: 1.5; max-width: 142px; text-align: start;"><span class="nodeLabel"><p>NULL</p></span></div></foreignObject></g><g class="label attribute-type" transform="translate(-284.265625, 73.5)" style=""><foreignObject width="47.75" height="24"><div xmlns="http://www.w3.org/1999/xhtml" style="display: table-cell; white-space: nowrap; line-height: 1.5; max-width: 147px; text-align: start;"><span class="nodeLabel"><p>String</p></span></div></foreignObject></g><g class="label attribute-name" transform="translate(-211.515625, 73.5)" style=""><foreignObject width="72.703125" height="24"><div xmlns="http://www.w3.org/1999/xhtml" style="display: table-cell; white-space: nowrap; line-height: 1.5; max-width: 172px; text-align: start;"><span class="nodeLabel"><p>unknown</p></span></div></foreignObject></g><g class="label attribute-keys" transform="translate(-70.609375, 73.5)" style=""><foreignObject width="0" height="0"><div xmlns="http://www.w3.org/1999/xhtml" style="display: table-cell; white-space: nowrap; line-height: 1.5; max-width: 100px; text-align: start;"><span class="nodeLabel"></span></div></foreignObject></g><g class="label attribute-comment" transform="translate(-23.40625, 73.5)" style=""><foreignObject width="307.671875" height="24"><div xmlns="http://www.w3.org/1999/xhtml" style="display: table-cell; white-space: nowrap; line-height: 1.5; max-width: 406px; text-align: start;"><span class="nodeLabel"><p>NULL, assorted other interesting fields</p></span></div></foreignObject></g><g class="label attribute-type" transform="translate(-284.265625, 116.25)" style=""><foreignObject width="38.71875" height="24"><div xmlns="http://www.w3.org/1999/xhtml" style="display: table-cell; white-space: nowrap; line-height: 1.5; max-width: 139px; text-align: start;"><span class="nodeLabel"><p>Long</p></span></div></foreignObject></g><g class="label attribute-name" transform="translate(-211.515625, 116.25)" style=""><foreignObject width="81.5625" height="24"><div xmlns="http://www.w3.org/1999/xhtml" style="display: table-cell; white-space: nowrap; line-height: 1.5; max-width: 182px; text-align: start;"><span class="nodeLabel"><p>origin_key</p></span></div></foreignObject></g><g class="label attribute-keys" transform="translate(-70.609375, 116.25)" style=""><foreignObject width="22.203125" height="24"><div xmlns="http://www.w3.org/1999/xhtml" style="display: table-cell; white-space: nowrap; line-height: 1.5; max-width: 123px; text-align: start;"><span class="nodeLabel"><p>UK</p></span></div></foreignObject></g><g class="label attribute-comment" transform="translate(-23.40625, 116.25)" style=""><foreignObject width="233.125" height="24"><div xmlns="http://www.w3.org/1999/xhtml" style="display: table-cell; white-space: nowrap; line-height: 1.5; max-width: 331px; text-align: start;"><span class="nodeLabel"><p>lookup key for originating DB</p></span></div></foreignObject></g><g class="divider"><path d="M-296.765625 -106.875 C-154.6817141555351 -106.875, -12.597803311070209 -106.875, 296.765625 -106.875 M-296.765625 -106.875 C-118.78771312435589 -106.875, 59.19019875128822 -106.875, 296.765625 -106.875" stroke="#9370DB" stroke-width="1.3" fill="none" stroke-dasharray="0 0"/></g><g class="divider"><path d="M-224.015625 -106.875 C-224.015625 -43.03611599330728, -224.015625 20.802768013385446, -224.015625 149.625 M-224.015625 -106.875 C-224.015625 -18.020816435122043, -224.015625 70.83336712975591, -224.015625 149.625" stroke="#9370DB" stroke-width="1.3" fill="none" stroke-dasharray="0 0"/></g><g class="divider"><path d="M-83.109375 -106.875 C-83.109375 -46.09370610273611, -83.109375 14.687587794527786, -83.109375 149.625 M-83.109375 -106.875 C-83.109375 -45.92764066488612, -83.109375 15.01971867022776, -83.109375 149.625" stroke="#9370DB" stroke-width="1.3" fill="none" stroke-dasharray="0 0"/></g><g class="divider"><path d="M-35.90625 -106.875 C-35.90625 -44.19691492173238, -35.90625 18.481170156535242, -35.90625 149.625 M-35.90625 -106.875 C-35.90625 -29.274753697404293, -35.90625 48.325492605191414, -35.90625 149.625" stroke="#9370DB" stroke-width="1.3" fill="none" stroke-dasharray="0 0"/></g><g class="divider"><path d="M-296.765625 -106.875 C-161.1099492002133 -106.875, -25.454273400426587 -106.875, 296.765625 -106.875 M-296.765625 -106.875 C-64.21584011091585 -106.875, 168.3339447781683 -106.875, 296.765625 -106.875" stroke="#9370DB" stroke-width="1.3" fill="none" stroke-dasharray="0 0"/></g></g><g class="node default" id="entity-dig_site_grids-3" transform="translate(352.3515625, 1060.25)"><g style=""><path d="M-117.0625 -128.25 L117.0625 -128.25 L117.0625 128.25 L-117.0625 128.25" stroke="none" stroke-width="0" fill="#ECECFF"/><path d="M-117.0625 -128.25 C-50.499712446378055 -128.25, 16.06307510724389 -128.25, 117.0625 -128.25 M-117.0625 -128.25 C-47.488441285516515 -128.25, 22.08561742896697 -128.25, 117.0625 -128.25 M117.0625 -128.25 C117.0625 -67.36673904493527, 117.0625 -6.483478089870545, 117.0625 128.25 M117.0625 -128.25 C117.0625 -73.39828903964447, 117.0625 -18.546578079288935, 117.0625 128.25 M117.0625 128.25 C40.40105560267567 128.25, -36.26038879464866 128.25, -117.0625 128.25 M117.0625 128.25 C25.055413701795047 128.25, -66.9516725964099 128.25, -117.0625 128.25 M-117.0625 128.25 C-117.0625 34.144383771160534, -117.0625 -59.96123245767893, -117.0625 -128.25 M-117.0625 128.25 C-117.0625 51.47329637053383, -117.0625 -25.30340725893234, -117.0625 -128.25" stroke="#9370DB" stroke-width="1.3" fill="none" stroke-dasharray="0 0"/></g><g style="" class="row-rect-odd"><path d="M-117.0625 -85.5 L117.0625 -85.5 L117.0625 -42.75 L-117.0625 -42.75" stroke="none" stroke-width="0" fill="hsl(240, 100%, 100%)"/><path d="M-117.0625 -85.5 C-60.38298841631113 -85.5, -3.7034768326222576 -85.5, 117.0625 -85.5 M-117.0625 -85.5 C-55.834987020341345 -85.5, 5.392525959317311 -85.5, 117.0625 -85.5 M117.0625 -85.5 C117.0625 -76.87387045642198, 117.0625 -68.24774091284397, 117.0625 -42.75 M117.0625 -85.5 C117.0625 -70.44876595886753, 117.0625 -55.39753191773505, 117.0625 -42.75 M117.0625 -42.75 C38.58697849514108 -42.75, -39.888543009717836 -42.75, -117.0625 -42.75 M117.0625 -42.75 C38.68062980996061 -42.75, -39.70124038007879 -42.75, -117.0625 -42.75 M-117.0625 -42.75 C-117.0625 -54.73137311632437, -117.0625 -66.71274623264874, -117.0625 -85.5 M-117.0625 -42.75 C-117.0625 -52.768194149853905, -117.0625 -62.78638829970781, -117.0625 -85.5" stroke="#9370DB" stroke-width="1.3" fill="none" stroke-dasharray="0 0"/></g><g style="" class="row-rect-even"><path d="M-117.0625 -42.75 L117.0625 -42.75 L117.0625 0 L-117.0625 0" stroke="none" stroke-width="0" fill="hsl(240, 100%, 97.2745098039%)"/><path d="M-117.0625 -42.75 C-62.85809097639091 -42.75, -8.653681952781824 -42.75, 117.0625 -42.75 M-117.0625 -42.75 C-69.22463540160479 -42.75, -21.386770803209586 -42.75, 117.0625 -42.75 M117.0625 -42.75 C117.0625 -27.01167801963514, 117.0625 -11.273356039270283, 117.0625 0 M117.0625 -42.75 C117.0625 -25.80597223506361, 117.0625 -8.86194447012722, 117.0625 0 M117.0625 0 C42.333514231422114 0, -32.39547153715577 0, -117.0625 0 M117.0625 0 C26.07496846891921 0, -64.91256306216158 0, -117.0625 0 M-117.0625 0 C-117.0625 -13.352508444579934, -117.0625 -26.705016889159868, -117.0625 -42.75 M-117.0625 0 C-117.0625 -14.202339503334093, -117.0625 -28.404679006668186, -117.0625 -42.75" stroke="#9370DB" stroke-width="1.3" fill="none" stroke-dasharray="0 0"/></g><g style="" class="row-rect-odd"><path d="M-117.0625 0 L117.0625 0 L117.0625 42.75 L-117.0625 42.75" stroke="none" stroke-width="0" fill="hsl(240, 100%, 100%)"/><path d="M-117.0625 0 C-47.32003865759526 0, 22.422422684809476 0, 117.0625 0 M-117.0625 0 C-28.203775883921352 0, 60.654948232157295 0, 117.0625 0 M117.0625 0 C117.0625 12.310086078370356, 117.0625 24.62017215674071, 117.0625 42.75 M117.0625 0 C117.0625 9.828770740148725, 117.0625 19.65754148029745, 117.0625 42.75 M117.0625 42.75 C46.05535862734972 42.75, -24.951782745300562 42.75, -117.0625 42.75 M117.0625 42.75 C42.04065614734699 42.75, -32.98118770530601 42.75, -117.0625 42.75 M-117.0625 42.75 C-117.0625 29.91506789283531, -117.0625 17.080135785670617, -117.0625 0 M-117.0625 42.75 C-117.0625 30.030448097841724, -117.0625 17.310896195683448, -117.0625 0" stroke="#9370DB" stroke-width="1.3" fill="none" stroke-dasharray="0 0"/></g><g style="" class="row-rect-even"><path d="M-117.0625 42.75 L117.0625 42.75 L117.0625 85.5 L-117.0625 85.5" stroke="none" stroke-width="0" fill="hsl(240, 100%, 97.2745098039%)"/><path d="M-117.0625 42.75 C-37.16557121581094 42.75, 42.731357568378115 42.75, 117.0625 42.75 M-117.0625 42.75 C-30.356214300544465 42.75, 56.35007139891107 42.75, 117.0625 42.75 M117.0625 42.75 C117.0625 58.18817481075736, 117.0625 73.62634962151472, 117.0625 85.5 M117.0625 42.75 C117.0625 56.175366713207865, 117.0625 69.60073342641573, 117.0625 85.5 M117.0625 85.5 C52.011672464873016 85.5, -13.039155070253969 85.5, -117.0625 85.5 M117.0625 85.5 C36.187701017585695 85.5, -44.68709796482861 85.5, -117.0625 85.5 M-117.0625 85.5 C-117.0625 73.89201031777398, -117.0625 62.28402063554796, -117.0625 42.75 M-117.0625 85.5 C-117.0625 73.55850933003586, -117.0625 61.61701866007172, -117.0625 42.75" stroke="#9370DB" stroke-width="1.3" fill="none" stroke-dasharray="0 0"/></g><g style="" class="row-rect-odd"><path d="M-117.0625 85.5 L117.0625 85.5 L117.0625 128.25 L-117.0625 128.25" stroke="none" stroke-width="0" fill="hsl(240, 100%, 100%)"/><path d="M-117.0625 85.5 C-50.268790828191825 85.5, 16.52491834361635 85.5, 117.0625 85.5 M-117.0625 85.5 C-31.55697803155715 85.5, 53.9485439368857 85.5, 117.0625 85.5 M117.0625 85.5 C117.0625 98.62198319723281, 117.0625 111.74396639446562, 117.0625 128.25 M117.0625 85.5 C117.0625 95.3017011684009, 117.0625 105.1034023368018, 117.0625 128.25 M117.0625 128.25 C57.6381682679165 128.25, -1.7861634641670037 128.25, -117.0625 128.25 M117.0625 128.25 C69.55245156151176 128.25, 22.042403123023533 128.25, -117.0625 128.25 M-117.0625 128.25 C-117.0625 119.45788000048127, -117.0625 110.66576000096254, -117.0625 85.5 M-117.0625 128.25 C-117.0625 111.73556812588477, -117.0625 95.22113625176954, -117.0625 85.5" stroke="#9370DB" stroke-width="1.3" fill="none" stroke-dasharray="0 0"/></g><g class="label name" transform="translate(-54.6640625, -118.875)" style=""><foreignObject width="109.328125" height="24"><div xmlns="http://www.w3.org/1999/xhtml" style="display: table-cell; white-space: nowrap; line-height: 1.5; max-width: 209px; text-align: start;"><span class="nodeLabel"><p>dig_site_grids</p></span></div></foreignObject></g><g class="label attribute-type" transform="translate(-104.5625, -76.125)" style=""><foreignObject width="38.71875" height="24"><div xmlns="http://www.w3.org/1999/xhtml" style="display: table-cell; white-space: nowrap; line-height: 1.5; max-width: 139px; text-align: start;"><span class="nodeLabel"><p>Long</p></span></div></foreignObject></g><g class="label attribute-name" transform="translate(-22, -76.125)" style=""><foreignObject width="53.9375" height="24"><div xmlns="http://www.w3.org/1999/xhtml" style="display: table-cell; white-space: nowrap; line-height: 1.5; max-width: 154px; text-align: start;"><span class="nodeLabel"><p>grid_id</p></span></div></foreignObject></g><g class="label attribute-keys" transform="translate(84.421875, -76.125)" style=""><foreignObject width="20.140625" height="24"><div xmlns="http://www.w3.org/1999/xhtml" style="display: table-cell; white-space: nowrap; line-height: 1.5; max-width: 121px; text-align: start;"><span class="nodeLabel"><p>PK</p></span></div></foreignObject></g><g class="label attribute-comment" transform="translate(129.5625, -76.125)" style=""><foreignObject width="0" height="0"><div xmlns="http://www.w3.org/1999/xhtml" style="display: table-cell; white-space: nowrap; line-height: 1.5; max-width: 100px; text-align: start;"><span class="nodeLabel"></span></div></foreignObject></g><g class="label attribute-type" transform="translate(-104.5625, -33.375)" style=""><foreignObject width="38.71875" height="24"><div xmlns="http://www.w3.org/1999/xhtml" style="display: table-cell; white-space: nowrap; line-height: 1.5; max-width: 139px; text-align: start;"><span class="nodeLabel"><p>Long</p></span></div></foreignObject></g><g class="label attribute-name" transform="translate(-22, -33.375)" style=""><foreignObject width="72.90625" height="24"><div xmlns="http://www.w3.org/1999/xhtml" style="display: table-cell; white-space: nowrap; line-height: 1.5; max-width: 173px; text-align: start;"><span class="nodeLabel"><p>player_id</p></span></div></foreignObject></g><g class="label attribute-keys" transform="translate(84.421875, -33.375)" style=""><foreignObject width="19.703125" height="24"><div xmlns="http://www.w3.org/1999/xhtml" style="display: table-cell; white-space: nowrap; line-height: 1.5; max-width: 120px; text-align: start;"><span class="nodeLabel"><p>FK</p></span></div></foreignObject></g><g class="label attribute-comment" transform="translate(129.5625, -33.375)" style=""><foreignObject width="0" height="0"><div xmlns="http://www.w3.org/1999/xhtml" style="display: table-cell; white-space: nowrap; line-height: 1.5; max-width: 100px; text-align: start;"><span class="nodeLabel"></span></div></foreignObject></g><g class="label attribute-type" transform="translate(-104.5625, 9.375)" style=""><foreignObject width="57.5625" height="24"><div xmlns="http://www.w3.org/1999/xhtml" style="display: table-cell; white-space: nowrap; line-height: 1.5; max-width: 158px; text-align: start;"><span class="nodeLabel"><p>Integer</p></span></div></foreignObject></g><g class="label attribute-name" transform="translate(-22, 9.375)" style=""><foreignObject width="51" height="24"><div xmlns="http://www.w3.org/1999/xhtml" style="display: table-cell; white-space: nowrap; line-height: 1.5; max-width: 150px; text-align: start;"><span class="nodeLabel"><p>height</p></span></div></foreignObject></g><g class="label attribute-keys" transform="translate(84.421875, 9.375)" style=""><foreignObject width="0" height="0"><div xmlns="http://www.w3.org/1999/xhtml" style="display: table-cell; white-space: nowrap; line-height: 1.5; max-width: 100px; text-align: start;"><span class="nodeLabel"></span></div></foreignObject></g><g class="label attribute-comment" transform="translate(129.5625, 9.375)" style=""><foreignObject width="0" height="0"><div xmlns="http://www.w3.org/1999/xhtml" style="display: table-cell; white-space: nowrap; line-height: 1.5; max-width: 100px; text-align: start;"><span class="nodeLabel"></span></div></foreignObject></g><g class="label attribute-type" transform="translate(-104.5625, 52.125)" style=""><foreignObject width="57.5625" height="24"><div xmlns="http://www.w3.org/1999/xhtml" style="display: table-cell; white-space: nowrap; line-height: 1.5; max-width: 158px; text-align: start;"><span class="nodeLabel"><p>Integer</p></span></div></foreignObject></g><g class="label attribute-name" transform="translate(-22, 52.125)" style=""><foreignObject width="44.109375" height="24"><div xmlns="http://www.w3.org/1999/xhtml" style="display: table-cell; white-space: nowrap; line-height: 1.5; max-width: 143px; text-align: start;"><span class="nodeLabel"><p>width</p></span></div></foreignObject></g><g class="label attribute-keys" transform="translate(84.421875, 52.125)" style=""><foreignObject width="0" height="0"><div xmlns="http://www.w3.org/1999/xhtml" style="display: table-cell; white-space: nowrap; line-height: 1.5; max-width: 100px; text-align: start;"><span class="nodeLabel"></span></div></foreignObject></g><g class="label attribute-comment" transform="translate(129.5625, 52.125)" style=""><foreignObject width="0" height="0"><div xmlns="http://www.w3.org/1999/xhtml" style="display: table-cell; white-space: nowrap; line-height: 1.5; max-width: 100px; text-align: start;"><span class="nodeLabel"></span></div></foreignObject></g><g class="label attribute-type" transform="translate(-104.5625, 94.875)" style=""><foreignObject width="55.6875" height="24"><div xmlns="http://www.w3.org/1999/xhtml" style="display: table-cell; white-space: nowrap; line-height: 1.5; max-width: 155px; text-align: start;"><span class="nodeLabel"><p>Instant</p></span></div></foreignObject></g><g class="label attribute-name" transform="translate(-22, 94.875)" style=""><foreignObject width="81.421875" height="24"><div xmlns="http://www.w3.org/1999/xhtml" style="display: table-cell; white-space: nowrap; line-height: 1.5; max-width: 181px; text-align: start;"><span class="nodeLabel"><p>start_time</p></span></div></foreignObject></g><g class="label attribute-keys" transform="translate(84.421875, 94.875)" style=""><foreignObject width="0" height="0"><div xmlns="http://www.w3.org/1999/xhtml" style="display: table-cell; white-space: nowrap; line-height: 1.5; max-width: 100px; text-align: start;"><span class="nodeLabel"></span></div></foreignObject></g><g class="label attribute-comment" transform="translate(129.5625, 94.875)" style=""><foreignObject width="0" height="0"><div xmlns="http://www.w3.org/1999/xhtml" style="display: table-cell; white-space: nowrap; line-height: 1.5; max-width: 100px; text-align: start;"><span class="nodeLabel"></span></div></foreignObject></g><g class="divider"><path d="M-117.0625 -85.5 C-46.362218322147655 -85.5, 24.33806335570469 -85.5, 117.0625 -85.5 M-117.0625 -85.5 C-29.050608993552558 -85.5, 58.961282012894884 -85.5, 117.0625 -85.5" stroke="#9370DB" stroke-width="1.3" fill="none" stroke-dasharray="0 0"/></g><g class="divider"><path d="M-34.5 -85.5 C-34.5 -18.257801333015692, -34.5 48.984397333968616, -34.5 128.25 M-34.5 -85.5 C-34.5 -38.14205459834183, -34.5 9.215890803316341, -34.5 128.25" stroke="#9370DB" stroke-width="1.3" fill="none" stroke-dasharray="0 0"/></g><g class="divider"><path d="M71.921875 -85.5 C71.921875 -25.325013770795586, 71.921875 34.84997245840883, 71.921875 128.25 M71.921875 -85.5 C71.921875 -10.317098148451393, 71.921875 64.86580370309721, 71.921875 128.25" stroke="#9370DB" stroke-width="1.3" fill="none" stroke-dasharray="0 0"/></g><g class="divider"><path d="M-117.0625 -85.5 C-48.78806883135515 -85.5, 19.486362337289705 -85.5, 117.0625 -85.5 M-117.0625 -85.5 C-68.5721099382357 -85.5, -20.081719876471396 -85.5, 117.0625 -85.5" stroke="#9370DB" stroke-width="1.3" fill="none" stroke-dasharray="0 0"/></g></g><g class="node default" id="entity-dig_site_squares-4" transform="translate(352.3515625, 1460.875)"><g style=""><path d="M-344.3515625 -192.375 L344.3515625 -192.375 L344.3515625 192.375 L-344.3515625 192.375" stroke="none" stroke-width="0" fill="#ECECFF"/><path d="M-344.3515625 -192.375 C-130.6841326347609 -192.375, 82.98329723047817 -192.375, 344.3515625 -192.375 M-344.3515625 -192.375 C-118.46929700006541 -192.375, 107.41296849986918 -192.375, 344.3515625 -192.375 M344.3515625 -192.375 C344.3515625 -65.24231515140073, 344.3515625 61.89036969719854, 344.3515625 192.375 M344.3515625 -192.375 C344.3515625 -63.384462055995925, 344.3515625 65.60607588800815, 344.3515625 192.375 M344.3515625 192.375 C81.79841074125733 192.375, -180.75474101748534 192.375, -344.3515625 192.375 M344.3515625 192.375 C196.84267743049182 192.375, 49.33379236098364 192.375, -344.3515625 192.375 M-344.3515625 192.375 C-344.3515625 114.82792133771372, -344.3515625 37.28084267542744, -344.3515625 -192.375 M-344.3515625 192.375 C-344.3515625 90.85367740560484, -344.3515625 -10.667645188790317, -344.3515625 -192.375" stroke="#9370DB" stroke-width="1.3" fill="none" stroke-dasharray="0 0"/></g><g style="" class="row-rect-odd"><path d="M-344.3515625 -149.625 L344.3515625 -149.625 L344.3515625 -106.875 L-344.3515625 -106.875" stroke="none" stroke-width="0" fill="hsl(240, 100%, 100%)"/><path d="M-344.3515625 -149.625 C-75.33138985437034 -149.625, 193.6887827912593 -149.625, 344.3515625 -149.625 M-344.3515625 -149.625 C-87.56397837152332 -149.625, 169.22360575695336 -149.625, 344.3515625 -149.625 M344.3515625 -149.625 C344.3515625 -133.48936625203189, 344.3515625 -117.35373250406377, 344.3515625 -106.875 M344.3515625 -149.625 C344.3515625 -138.84930057969123, 344.3515625 -128.07360115938246, 344.3515625 -106.875 M344.3515625 -106.875 C161.16313350152717 -106.875, -22.02529549694566 -106.875, -344.3515625 -106.875 M344.3515625 -106.875 C166.24334228062162 -106.875, -11.864877938756763 -106.875, -344.3515625 -106.875 M-344.3515625 -106.875 C-344.3515625 -118.62212758160577, -344.3515625 -130.36925516321153, -344.3515625 -149.625 M-344.3515625 -106.875 C-344.3515625 -117.14956642801889, -344.3515625 -127.42413285603777, -344.3515625 -149.625" stroke="#9370DB" stroke-width="1.3" fill="none" stroke-dasharray="0 0"/></g><g style="" class="row-rect-even"><path d="M-344.3515625 -106.875 L344.3515625 -106.875 L344.3515625 -64.125 L-344.3515625 -64.125" stroke="none" stroke-width="0" fill="hsl(240, 100%, 97.2745098039%)"/><path d="M-344.3515625 -106.875 C-76.50097670675694 -106.875, 191.3496090864861 -106.875, 344.3515625 -106.875 M-344.3515625 -106.875 C-161.64411505706497 -106.875, 21.06333238587007 -106.875, 344.3515625 -106.875 M344.3515625 -106.875 C344.3515625 -97.62588957714617, 344.3515625 -88.37677915429234, 344.3515625 -64.125 M344.3515625 -106.875 C344.3515625 -91.19579756449944, 344.3515625 -75.51659512899889, 344.3515625 -64.125 M344.3515625 -64.125 C104.32531896509553 -64.125, -135.70092456980893 -64.125, -344.3515625 -64.125 M344.3515625 -64.125 C205.87672122484415 -64.125, 67.4018799496883 -64.125, -344.3515625 -64.125 M-344.3515625 -64.125 C-344.3515625 -79.58731697901118, -344.3515625 -95.04963395802235, -344.3515625 -106.875 M-344.3515625 -64.125 C-344.3515625 -72.6782556085513, -344.3515625 -81.2315112171026, -344.3515625 -106.875" stroke="#9370DB" stroke-width="1.3" fill="none" stroke-dasharray="0 0"/></g><g style="" class="row-rect-odd"><path d="M-344.3515625 -64.125 L344.3515625 -64.125 L344.3515625 -21.375 L-344.3515625 -21.375" stroke="none" stroke-width="0" fill="hsl(240, 100%, 100%)"/><path d="M-344.3515625 -64.125 C-115.2341191876416 -64.125, 113.88332412471681 -64.125, 344.3515625 -64.125 M-344.3515625 -64.125 C-135.45630274336975 -64.125, 73.4389570132605 -64.125, 344.3515625 -64.125 M344.3515625 -64.125 C344.3515625 -50.82187196031443, 344.3515625 -37.518743920628864, 344.3515625 -21.375 M344.3515625 -64.125 C344.3515625 -47.97078625421039, 344.3515625 -31.816572508420776, 344.3515625 -21.375 M344.3515625 -21.375 C159.79725447881574 -21.375, -24.75705354236851 -21.375, -344.3515625 -21.375 M344.3515625 -21.375 C113.26807125383536 -21.375, -117.81541999232928 -21.375, -344.3515625 -21.375 M-344.3515625 -21.375 C-344.3515625 -37.589853971416105, -344.3515625 -53.8047079428322, -344.3515625 -64.125 M-344.3515625 -21.375 C-344.3515625 -37.11111970152886, -344.3515625 -52.84723940305771, -344.3515625 -64.125" stroke="#9370DB" stroke-width="1.3" fill="none" stroke-dasharray="0 0"/></g><g style="" class="row-rect-even"><path d="M-344.3515625 -21.375 L344.3515625 -21.375 L344.3515625 21.375 L-344.3515625 21.375" stroke="none" stroke-width="0" fill="hsl(240, 100%, 97.2745098039%)"/><path d="M-344.3515625 -21.375 C-157.0344285623672 -21.375, 30.282705375265607 -21.375, 344.3515625 -21.375 M-344.3515625 -21.375 C-91.39977428930757 -21.375, 161.55201392138486 -21.375, 344.3515625 -21.375 M344.3515625 -21.375 C344.3515625 -12.48806492315798, 344.3515625 -3.60112984631596, 344.3515625 21.375 M344.3515625 -21.375 C344.3515625 -7.546726472695092, 344.3515625 6.281547054609817, 344.3515625 21.375 M344.3515625 21.375 C198.9050449806406 21.375, 53.45852746128122 21.375, -344.3515625 21.375 M344.3515625 21.375 C98.28434110424746 21.375, -147.78288029150508 21.375, -344.3515625 21.375 M-344.3515625 21.375 C-344.3515625 5.395313916263358, -344.3515625 -10.584372167473283, -344.3515625 -21.375 M-344.3515625 21.375 C-344.3515625 7.838921397572536, -344.3515625 -5.697157204854928, -344.3515625 -21.375" stroke="#9370DB" stroke-width="1.3" fill="none" stroke-dasharray="0 0"/></g><g style="" class="row-rect-odd"><path d="M-344.3515625 21.375 L344.3515625 21.375 L344.3515625 64.125 L-344.3515625 64.125" stroke="none" stroke-width="0" fill="hsl(240, 100%, 100%)"/><path d="M-344.3515625 21.375 C-152.31927680113432 21.375, 39.713008897731356 21.375, 344.3515625 21.375 M-344.3515625 21.375 C-94.64411723572601 21.375, 155.06332802854797 21.375, 344.3515625 21.375 M344.3515625 21.375 C344.3515625 33.80598430433962, 344.3515625 46.23696860867924, 344.3515625 64.125 M344.3515625 21.375 C344.3515625 37.66406539212596, 344.3515625 53.953130784251925, 344.3515625 64.125 M344.3515625 64.125 C192.77734402170344 64.125, 41.203125543406884 64.125, -344.3515625 64.125 M344.3515625 64.125 C104.96458261042665 64.125, -134.4223972791467 64.125, -344.3515625 64.125 M-344.3515625 64.125 C-344.3515625 49.700181689255395, -344.3515625 35.27536337851079, -344.3515625 21.375 M-344.3515625 64.125 C-344.3515625 47.80599997324478, -344.3515625 31.48699994648956, -344.3515625 21.375" stroke="#9370DB" stroke-width="1.3" fill="none" stroke-dasharray="0 0"/></g><g style="" class="row-rect-even"><path d="M-344.3515625 64.125 L344.3515625 64.125 L344.3515625 106.875 L-344.3515625 106.875" stroke="none" stroke-width="0" fill="hsl(240, 100%, 97.2745098039%)"/><path d="M-344.3515625 64.125 C-177.96452669892176 64.125, -11.577490897843518 64.125, 344.3515625 64.125 M-344.3515625 64.125 C-105.344508099368 64.125, 133.662546301264 64.125, 344.3515625 64.125 M344.3515625 64.125 C344.3515625 80.42058778450522, 344.3515625 96.71617556901043, 344.3515625 106.875 M344.3515625 64.125 C344.3515625 78.40964871137326, 344.3515625 92.69429742274653, 344.3515625 106.875 M344.3515625 106.875 C84.34642072151087 106.875, -175.65872105697827 106.875, -344.3515625 106.875 M344.3515625 106.875 C103.15041310797821 106.875, -138.05073628404358 106.875, -344.3515625 106.875 M-344.3515625 106.875 C-344.3515625 91.33295213280955, -344.3515625 75.7909042656191, -344.3515625 64.125 M-344.3515625 106.875 C-344.3515625 93.83443799406628, -344.3515625 80.79387598813256, -344.3515625 64.125" stroke="#9370DB" stroke-width="1.3" fill="none" stroke-dasharray="0 0"/></g><g style="" class="row-rect-odd"><path d="M-344.3515625 106.875 L344.3515625 106.875 L344.3515625 149.625 L-344.3515625 149.625" stroke="none" stroke-width="0" fill="hsl(240, 100%, 100%)"/><path d="M-344.3515625 106.875 C-185.47324663600313 106.875, -26.59493077200625 106.875, 344.3515625 106.875 M-344.3515625 106.875 C-82.25437905000507 106.875, 179.84280439998986 106.875, 344.3515625 106.875 M344.3515625 106.875 C344.3515625 119.18870651255523, 344.3515625 131.50241302511046, 344.3515625 149.625 M344.3515625 106.875 C344.3515625 123.43543093294136, 344.3515625 139.99586186588272, 344.3515625 149.625 M344.3515625 149.625 C175.80070953792787 149.625, 7.249856575855745 149.625, -344.3515625 149.625 M344.3515625 149.625 C190.63296568064501 149.625, 36.91436886129003 149.625, -344.3515625 149.625 M-344.3515625 149.625 C-344.3515625 135.1307482004575, -344.3515625 120.63649640091501, -344.3515625 106.875 M-344.3515625 149.625 C-344.3515625 136.33967526685407, -344.3515625 123.05435053370815, -344.3515625 106.875" stroke="#9370DB" stroke-width="1.3" fill="none" stroke-dasharray="0 0"/></g><g style="" class="row-rect-even"><path d="M-344.3515625 149.625 L344.3515625 149.625 L344.3515625 192.375 L-344.3515625 192.375" stroke="none" stroke-width="0" fill="hsl(240, 100%, 97.2745098039%)"/><path d="M-344.3515625 149.625 C-205.18075786155055 149.625, -66.00995322310109 149.625, 344.3515625 149.625 M-344.3515625 149.625 C-87.61702696845919 149.625, 169.11750856308163 149.625, 344.3515625 149.625 M344.3515625 149.625 C344.3515625 165.66416082241074, 344.3515625 181.70332164482147, 344.3515625 192.375 M344.3515625 149.625 C344.3515625 164.6936836251341, 344.3515625 179.76236725026823, 344.3515625 192.375 M344.3515625 192.375 C90.58517751911918 192.375, -163.18120746176163 192.375, -344.3515625 192.375 M344.3515625 192.375 C104.9403326712916 192.375, -134.4708971574168 192.375, -344.3515625 192.375 M-344.3515625 192.375 C-344.3515625 182.96413557112214, -344.3515625 173.55327114224428, -344.3515625 149.625 M-344.3515625 192.375 C-344.3515625 180.97948215737958, -344.3515625 169.58396431475916, -344.3515625 149.625" stroke="#9370DB" stroke-width="1.3" fill="none" stroke-dasharray="0 0"/></g><g class="label name" transform="translate(-66.25, -183)" style=""><foreignObject width="132.5" height="24"><div xmlns="http://www.w3.org/1999/xhtml" style="display: table-cell; white-space: nowrap; line-height: 1.5; max-width: 233px; text-align: start;"><span class="nodeLabel"><p>dig_site_squares</p></span></div></foreignObject></g><g class="label attribute-type" transform="translate(-331.8515625, -140.25)" style=""><foreignObject width="38.71875" height="24"><div xmlns="http://www.w3.org/1999/xhtml" style="display: table-cell; white-space: nowrap; line-height: 1.5; max-width: 139px; text-align: start;"><span class="nodeLabel"><p>Long</p></span></div></foreignObject></g><g class="label attribute-name" transform="translate(-242.0546875, -140.25)" style=""><foreignObject width="77.109375" height="24"><div xmlns="http://www.w3.org/1999/xhtml" style="display: table-cell; white-space: nowrap; line-height: 1.5; max-width: 177px; text-align: start;"><span class="nodeLabel"><p>square_id</p></span></div></foreignObject></g><g class="label attribute-keys" transform="translate(-29.2421875, -140.25)" style=""><foreignObject width="20.140625" height="24"><div xmlns="http://www.w3.org/1999/xhtml" style="display: table-cell; white-space: nowrap; line-height: 1.5; max-width: 121px; text-align: start;"><span class="nodeLabel"><p>PK</p></span></div></foreignObject></g><g class="label attribute-comment" transform="translate(15.8984375, -140.25)" style=""><foreignObject width="0" height="0"><div xmlns="http://www.w3.org/1999/xhtml" style="display: table-cell; white-space: nowrap; line-height: 1.5; max-width: 100px; text-align: start;"><span class="nodeLabel"></span></div></foreignObject></g><g class="label attribute-type" transform="translate(-331.8515625, -97.5)" style=""><foreignObject width="38.71875" height="24"><div xmlns="http://www.w3.org/1999/xhtml" style="display: table-cell; white-space: nowrap; line-height: 1.5; max-width: 139px; text-align: start;"><span class="nodeLabel"><p>Long</p></span></div></foreignObject></g><g class="label attribute-name" transform="translate(-242.0546875, -97.5)" style=""><foreignObject width="141.21875" height="24"><div xmlns="http://www.w3.org/1999/xhtml" style="display: table-cell; white-space: nowrap; line-height: 1.5; max-width: 241px; text-align: start;"><span class="nodeLabel"><p>belonging_grid_id</p></span></div></foreignObject></g><g class="label attribute-keys" transform="translate(-29.2421875, -97.5)" style=""><foreignObject width="19.703125" height="24"><div xmlns="http://www.w3.org/1999/xhtml" style="display: table-cell; white-space: nowrap; line-height: 1.5; max-width: 120px; text-align: start;"><span class="nodeLabel"><p>FK</p></span></div></foreignObject></g><g class="label attribute-comment" transform="translate(15.8984375, -97.5)" style=""><foreignObject width="0" height="0"><div xmlns="http://www.w3.org/1999/xhtml" style="display: table-cell; white-space: nowrap; line-height: 1.5; max-width: 100px; text-align: start;"><span class="nodeLabel"></span></div></foreignObject></g><g class="label attribute-type" transform="translate(-331.8515625, -54.75)" style=""><foreignObject width="57.5625" height="24"><div xmlns="http://www.w3.org/1999/xhtml" style="display: table-cell; white-space: nowrap; line-height: 1.5; max-width: 158px; text-align: start;"><span class="nodeLabel"><p>Integer</p></span></div></foreignObject></g><g class="label attribute-name" transform="translate(-242.0546875, -54.75)" style=""><foreignObject width="102.8125" height="24"><div xmlns="http://www.w3.org/1999/xhtml" style="display: table-cell; white-space: nowrap; line-height: 1.5; max-width: 203px; text-align: start;"><span class="nodeLabel"><p>x_coordinate</p></span></div></foreignObject></g><g class="label attribute-keys" transform="translate(-29.2421875, -54.75)" style=""><foreignObject width="0" height="0"><div xmlns="http://www.w3.org/1999/xhtml" style="display: table-cell; white-space: nowrap; line-height: 1.5; max-width: 100px; text-align: start;"><span class="nodeLabel"></span></div></foreignObject></g><g class="label attribute-comment" transform="translate(15.8984375, -54.75)" style=""><foreignObject width="0" height="0"><div xmlns="http://www.w3.org/1999/xhtml" style="display: table-cell; white-space: nowrap; line-height: 1.5; max-width: 100px; text-align: start;"><span class="nodeLabel"></span></div></foreignObject></g><g class="label attribute-type" transform="translate(-331.8515625, -12)" style=""><foreignObject width="57.5625" height="24"><div xmlns="http://www.w3.org/1999/xhtml" style="display: table-cell; white-space: nowrap; line-height: 1.5; max-width: 158px; text-align: start;"><span class="nodeLabel"><p>Integer</p></span></div></foreignObject></g><g class="label attribute-name" transform="translate(-242.0546875, -12)" style=""><foreignObject width="102.8125" height="24"><div xmlns="http://www.w3.org/1999/xhtml" style="display: table-cell; white-space: nowrap; line-height: 1.5; max-width: 203px; text-align: start;"><span class="nodeLabel"><p>y_coordinate</p></span></div></foreignObject></g><g class="label attribute-keys" transform="translate(-29.2421875, -12)" style=""><foreignObject width="0" height="0"><div xmlns="http://www.w3.org/1999/xhtml" style="display: table-cell; white-space: nowrap; line-height: 1.5; max-width: 100px; text-align: start;"><span class="nodeLabel"></span></div></foreignObject></g><g class="label attribute-comment" transform="translate(15.8984375, -12)" style=""><foreignObject width="0" height="0"><div xmlns="http://www.w3.org/1999/xhtml" style="display: table-cell; white-space: nowrap; line-height: 1.5; max-width: 100px; text-align: start;"><span class="nodeLabel"></span></div></foreignObject></g><g class="label attribute-type" transform="translate(-331.8515625, 30.75)" style=""><foreignObject width="64.796875" height="24"><div xmlns="http://www.w3.org/1999/xhtml" style="display: table-cell; white-space: nowrap; line-height: 1.5; max-width: 165px; text-align: start;"><span class="nodeLabel"><p>Boolean</p></span></div></foreignObject></g><g class="label attribute-name" transform="translate(-242.0546875, 30.75)" style=""><foreignObject width="77.265625" height="24"><div xmlns="http://www.w3.org/1999/xhtml" style="display: table-cell; white-space: nowrap; line-height: 1.5; max-width: 177px; text-align: start;"><span class="nodeLabel"><p>has_fossil</p></span></div></foreignObject></g><g class="label attribute-keys" transform="translate(-29.2421875, 30.75)" style=""><foreignObject width="0" height="0"><div xmlns="http://www.w3.org/1999/xhtml" style="display: table-cell; white-space: nowrap; line-height: 1.5; max-width: 100px; text-align: start;"><span class="nodeLabel"></span></div></foreignObject></g><g class="label attribute-comment" transform="translate(15.8984375, 30.75)" style=""><foreignObject width="0" height="0"><div xmlns="http://www.w3.org/1999/xhtml" style="display: table-cell; white-space: nowrap; line-height: 1.5; max-width: 100px; text-align: start;"><span class="nodeLabel"></span></div></foreignObject></g><g class="label attribute-type" transform="translate(-331.8515625, 73.5)" style=""><foreignObject width="57.5625" height="24"><div xmlns="http://www.w3.org/1999/xhtml" style="display: table-cell; white-space: nowrap; line-height: 1.5; max-width: 158px; text-align: start;"><span class="nodeLabel"><p>Integer</p></span></div></foreignObject></g><g class="label attribute-name" transform="translate(-242.0546875, 73.5)" style=""><foreignObject width="187.8125" height="24"><div xmlns="http://www.w3.org/1999/xhtml" style="display: table-cell; white-space: nowrap; line-height: 1.5; max-width: 288px; text-align: start;"><span class="nodeLabel"><p>moore_neighbor_fossils</p></span></div></foreignObject></g><g class="label attribute-keys" transform="translate(-29.2421875, 73.5)" style=""><foreignObject width="0" height="0"><div xmlns="http://www.w3.org/1999/xhtml" style="display: table-cell; white-space: nowrap; line-height: 1.5; max-width: 100px; text-align: start;"><span class="nodeLabel"></span></div></foreignObject></g><g class="label attribute-comment" transform="translate(15.8984375, 73.5)" style=""><foreignObject width="0" height="0"><div xmlns="http://www.w3.org/1999/xhtml" style="display: table-cell; white-space: nowrap; line-height: 1.5; max-width: 100px; text-align: start;"><span class="nodeLabel"></span></div></foreignObject></g><g class="label attribute-type" transform="translate(-331.8515625, 116.25)" style=""><foreignObject width="47.75" height="24"><div xmlns="http://www.w3.org/1999/xhtml" style="display: table-cell; white-space: nowrap; line-height: 1.5; max-width: 147px; text-align: start;"><span class="nodeLabel"><p>String</p></span></div></foreignObject></g><g class="label attribute-name" transform="translate(-242.0546875, 116.25)" style=""><foreignObject width="40.53125" height="24"><div xmlns="http://www.w3.org/1999/xhtml" style="display: table-cell; white-space: nowrap; line-height: 1.5; max-width: 140px; text-align: start;"><span class="nodeLabel"><p>state</p></span></div></foreignObject></g><g class="label attribute-keys" transform="translate(-29.2421875, 116.25)" style=""><foreignObject width="0" height="0"><div xmlns="http://www.w3.org/1999/xhtml" style="display: table-cell; white-space: nowrap; line-height: 1.5; max-width: 100px; text-align: start;"><span class="nodeLabel"></span></div></foreignObject></g><g class="label attribute-comment" transform="translate(15.8984375, 116.25)" style=""><foreignObject width="315.953125" height="24"><div xmlns="http://www.w3.org/1999/xhtml" style="display: table-cell; white-space: nowrap; line-height: 1.5; max-width: 414px; text-align: start;"><span class="nodeLabel"><p>UNTOUCHED|FENCED|DUG|EXTRACTED</p></span></div></foreignObject></g><g class="label attribute-type" transform="translate(-331.8515625, 159)" style=""><foreignObject width="55.6875" height="24"><div xmlns="http://www.w3.org/1999/xhtml" style="display: table-cell; white-space: nowrap; line-height: 1.5; max-width: 155px; text-align: start;"><span class="nodeLabel"><p>Instant</p></span></div></foreignObject></g><g class="label attribute-name" transform="translate(-242.0546875, 159)" style=""><foreignObject width="106.921875" height="24"><div xmlns="http://www.w3.org/1999/xhtml" style="display: table-cell; white-space: nowrap; line-height: 1.5; max-width: 207px; text-align: start;"><span class="nodeLabel"><p>last_modified</p></span></div></foreignObject></g><g class="label attribute-keys" transform="translate(-29.2421875, 159)" style=""><foreignObject width="0" height="0"><div xmlns="http://www.w3.org/1999/xhtml" style="display: table-cell; white-space: nowrap; line-height: 1.5; max-width: 100px; text-align: start;"><span class="nodeLabel"></span></div></foreignObject></g><g class="label attribute-comment" transform="translate(15.8984375, 159)" style=""><foreignObject width="0" height="0"><div xmlns="http://www.w3.org/1999/xhtml" style="display: table-cell; white-space: nowrap; line-height: 1.5; max-width: 100px; text-align: start;"><span class="nodeLabel"></span></div></foreignObject></g><g class="divider"><path d="M-344.3515625 -149.625 C-149.583676654516 -149.625, 45.18420919096798 -149.625, 344.3515625 -149.625 M-344.3515625 -149.625 C-87.02887955617558 -149.625, 170.29380338764884 -149.625, 344.3515625 -149.625" stroke="#9370DB" stroke-width="1.3" fill="none" stroke-dasharray="0 0"/></g><g class="divider"><path d="M-254.5546875 -149.625 C-254.5546875 -75.66499588475523, -254.5546875 -1.7049917695104568, -254.5546875 192.375 M-254.5546875 -149.625 C-254.5546875 -44.93899819530961, -254.5546875 59.74700360938078, -254.5546875 192.375" stroke="#9370DB" stroke-width="1.3" fill="none" stroke-dasharray="0 0"/></g><g class="divider"><path d="M-41.7421875 -149.625 C-41.7421875 -16.219477159731355, -41.7421875 117.18604568053729, -41.7421875 192.375 M-41.7421875 -149.625 C-41.7421875 -14.329251006450988, -41.7421875 120.96649798709802, -41.7421875 192.375" stroke="#9370DB" stroke-width="1.3" fill="none" stroke-dasharray="0 0"/></g><g class="divider"><path d="M3.3984375 -149.625 C3.3984375 -68.78338402755826, 3.3984375 12.058231944883488, 3.3984375 192.375 M3.3984375 -149.625 C3.3984375 -44.71090476272417, 3.3984375 60.20319047455166, 3.3984375 192.375" stroke="#9370DB" stroke-width="1.3" fill="none" stroke-dasharray="0 0"/></g><g class="divider"><path d="M-344.3515625 -149.625 C-110.77599156342251 -149.625, 122.79957937315498 -149.625, 344.3515625 -149.625 M-344.3515625 -149.625 C-198.99676914467886 -149.625, -53.64197578935773 -149.625, 344.3515625 -149.625" stroke="#9370DB" stroke-width="1.3" fill="none" stroke-dasharray="0 0"/></g></g></g></g></g></svg>